<svg class="icon icon-search" xmlns="http://www.w3.org/2000/svg" width="18" height="18" viewBox="0 0 18 18" fill="none">
<path d="M12.6 12.4211C12.4941 12.4211 12.4941 12.4211 12.6 12.4211C12.4941 12.5263 12.4941 12.5263 12.4941 12.5263C11.9647 13.0526 11.3294 13.4737 10.4824 13.7895C9.74118 14.1053 8.89412 14.2105 8.04706 14.2105C7.2 14.2105 6.35294 14 5.61176 13.6842C4.87059 13.3684 4.23529 12.9474 3.6 12.3158C3.07059 11.7895 2.54118 11.0526 2.22353 10.3158C1.90588 9.68421 1.8 8.94737 1.8 8.10526C1.8 7.26316 2.01176 6.42105 2.32941 5.68421C2.64706 4.84211 3.07059 4.21053 3.6 3.57895C4.23529 3.05263 4.87059 2.63158 5.61176 2.31579C6.35294 2 7.2 1.78947 8.04706 1.78947C8.89412 1.78947 9.74118 2 10.4824 2.31579C11.2235 2.63158 11.9647 3.05263 12.4941 3.68421C13.0235 4.21053 13.4471 4.94737 13.8706 5.68421C14.1882 6.42105 14.4 7.15789 14.4 8.10526C14.4 8.94737 14.1882 9.78947 13.8706 10.5263C13.5529 11.1579 13.1294 11.7895 12.6 12.4211ZM17.6824 16.3158L14.4 13.0526C14.9294 12.3158 15.3529 11.5789 15.6706 10.7368C15.9882 9.89474 16.0941 8.94737 16.0941 8C16.0941 6.84211 15.8824 5.78947 15.4588 4.84211C15.0353 3.89474 14.5059 3.05263 13.7647 2.31579C13.0235 1.57895 12.1765 1.05263 11.2235 0.631579C10.2706 0.210526 9.21177 0 8.04706 0C6.98824 0 5.92941 0.210526 4.87059 0.631579C3.91765 1.05263 3.07059 1.57895 2.32941 2.31579C1.58824 3.05263 1.05882 3.89474 0.635294 4.94737C0.211765 5.89474 0 6.94737 0 8.10526C0 9.15789 0.211765 10.2105 0.635294 11.2632C1.05882 12.2105 1.69412 13.0526 2.43529 13.7895C3.17647 14.5263 4.02353 15.0526 4.97647 15.5789C5.92941 15.8947 6.98824 16.1053 8.04706 16.1053C9 16.1053 9.95294 16 10.8 15.6842C11.6471 15.3684 12.4941 14.9474 13.1294 14.4211L16.4118 17.6842C16.6235 17.8947 16.8353 18 17.0471 18C17.2588 18 17.4706 17.8947 17.6824 17.6842C17.8941 17.4737 18 17.2632 18 17.0526C18 16.7368 17.8941 16.5263 17.6824 16.3158Z" fill="#111111"/>
</svg>